<svg width="156" height="19" viewBox="0 0 156 19" fill="none" xmlns="http://www.w3.org/2000/svg">
<path d="M9.22519 18.7609C12.0486 18.7609 14.3795 17.6119 16.021 15.7734L12.8365 13.0814C11.9829 14.0663 10.604 14.7229 9.25802 14.7229C6.76295 14.7229 4.66184 12.4904 4.66184 9.83123C4.66184 7.23767 6.76295 5.03807 9.25802 5.03807C10.5712 5.03807 11.9172 5.66184 12.738 6.6139L15.9225 3.88903C14.3138 2.11621 12.0157 1 9.29084 1C4.23505 1 0 5.03807 0 9.86406C0 14.69 4.23505 18.7609 9.22519 18.7609ZM23.2197 4.57845V1.39396H18.4266V18.367H23.2197V10.258C23.2197 7.07352 25.485 5.03807 29.0306 5.03807V1C26.4371 1 24.3359 2.37885 23.2197 4.57845ZM39.0993 15.0512C36.7684 15.0512 35.1597 13.4425 34.7329 11.1444H47.5366C47.5366 4.84109 44.3193 1 39.0008 1C34.0435 1 30.1696 4.70977 30.1696 9.83123C30.1696 15.0512 34.2077 18.7609 39.2635 18.7609C41.7585 18.7609 44.6804 17.7104 46.1906 16.1346L43.4985 13.3769C42.4151 14.3617 40.6423 15.0512 39.0993 15.0512ZM39.0337 4.70977C41.2004 4.70977 42.5464 6.18711 42.9404 8.28822H34.7658C35.2911 6.12146 36.8997 4.70977 39.0337 4.70977ZM53.477 18.367H57.7778L60.9622 7.69729L64.1467 18.367H68.4475L74.1927 1.39396H69.498L66.3135 11.9652L62.932 1.39396H58.9596L55.6109 11.9652L52.3937 1.39396H47.699L53.477 18.367ZM85.1609 18.367H100V14.2961H91.3986L99.9015 4.77543L99.9343 1.39396H85.3907V5.46486H93.6967L85.1609 14.9855V18.367Z" fill="#2E2E2E"/>
<path d="M79.3756 18.7612C80.9842 18.7612 82.2974 17.3823 82.2974 15.708C82.2974 14.165 80.9842 12.7861 79.3756 12.7861C77.6684 12.7861 76.3552 14.165 76.3552 15.708C76.3552 17.3823 77.6684 18.7612 79.3756 18.7612Z" fill="#FF5A5A"/>
<rect x="108" y="1" width="48" height="18" rx="4" fill="#2E2E2E"/>
<path d="M114.914 15.182C113.692 15.182 112.821 14.363 112.821 13.102C112.821 11.568 114.121 10.775 117.085 10.45C117.072 9.618 116.773 8.89 115.733 8.89C114.979 8.89 114.264 9.241 113.666 9.631L113.107 8.604C113.835 8.149 114.849 7.668 115.993 7.668C117.774 7.668 118.593 8.799 118.593 10.71V15H117.358L117.241 14.194H117.189C116.539 14.753 115.772 15.182 114.914 15.182ZM115.382 13.986C116.006 13.986 116.5 13.7 117.085 13.154V11.412C114.966 11.659 114.264 12.192 114.264 12.998C114.264 13.7 114.745 13.986 115.382 13.986ZM123.172 15.182C121.378 15.182 120.234 13.804 120.234 11.438C120.234 9.111 121.703 7.668 123.289 7.668C124.108 7.668 124.641 7.98 125.213 8.474L125.148 7.291V4.652H126.656V15H125.421L125.304 14.207H125.265C124.719 14.753 123.978 15.182 123.172 15.182ZM123.536 13.934C124.121 13.934 124.641 13.661 125.148 13.063V9.579C124.628 9.098 124.121 8.916 123.588 8.916C122.587 8.916 121.781 9.878 121.781 11.412C121.781 13.037 122.418 13.934 123.536 13.934ZM128.89 15V7.85H130.112L130.242 8.851H130.281C130.892 8.201 131.607 7.668 132.491 7.668C133.557 7.668 134.155 8.162 134.454 8.981C135.169 8.24 135.897 7.668 136.794 7.668C138.289 7.668 138.978 8.695 138.978 10.502V15H137.483V10.697C137.483 9.449 137.106 8.968 136.3 8.968C135.806 8.968 135.286 9.28 134.688 9.93V15H133.193V10.697C133.193 9.449 132.816 8.968 131.997 8.968C131.516 8.968 130.97 9.28 130.398 9.93V15H128.89ZM141.154 15V7.85H142.662V15H141.154ZM141.908 6.511C141.349 6.511 140.985 6.16 140.985 5.614C140.985 5.081 141.349 4.73 141.908 4.73C142.454 4.73 142.844 5.081 142.844 5.614C142.844 6.16 142.454 6.511 141.908 6.511ZM144.899 15V7.85H146.121L146.251 8.851H146.29C146.94 8.201 147.681 7.668 148.656 7.668C150.177 7.668 150.853 8.695 150.853 10.502V15H149.345V10.697C149.345 9.449 148.981 8.968 148.149 8.968C147.486 8.968 147.031 9.306 146.407 9.93V15H144.899Z" fill="white"/>
</svg>
