<svg width="100" height="100" viewBox="0 0 100 100" fill="none" xmlns="http://www.w3.org/2000/svg">
<circle cx="50" cy="50" r="50" fill="#5282FF"/>
<path fill-rule="evenodd" clip-rule="evenodd" d="M60 40V57C60 58.6569 58.6569 60 57 60H40V43C40 41.3431 41.3431 40 43 40H60Z" fill="white"/>
<path d="M60 40H62.5V37.5H60V40ZM40 60H37.5V62.5H40V60ZM57.5 40V57H62.5V40H57.5ZM57.5 57C57.5 57.2761 57.2761 57.5 57 57.5V62.5C60.0376 62.5 62.5 60.0376 62.5 57H57.5ZM57 57.5H40V62.5H57V57.5ZM42.5 60V43H37.5V60H42.5ZM42.5 43C42.5 42.7239 42.7239 42.5 43 42.5V37.5C39.9624 37.5 37.5 39.9624 37.5 43H42.5ZM43 42.5H60V37.5H43V42.5Z" fill="white"/>
<path d="M40 60H42.5V57.5H40V60ZM60 40H57.5V42.5H60V40ZM28.5 29C28.5 28.7239 28.7239 28.5 29 28.5V23.5C25.9624 23.5 23.5 25.9624 23.5 29H28.5ZM28.5 57V29H23.5V57H28.5ZM29 57.5C28.7239 57.5 28.5 57.2761 28.5 57H23.5C23.5 60.0376 25.9624 62.5 29 62.5V57.5ZM40 57.5H29V62.5H40V57.5ZM42.5 71V60H37.5V71H42.5ZM43 71.5C42.7239 71.5 42.5 71.2761 42.5 71H37.5C37.5 74.0376 39.9624 76.5 43 76.5V71.5ZM71 71.5H43V76.5H71V71.5ZM71.5 71C71.5 71.2761 71.2761 71.5 71 71.5V76.5C74.0376 76.5 76.5 74.0376 76.5 71H71.5ZM71.5 43V71H76.5V43H71.5ZM71 42.5C71.2761 42.5 71.5 42.7239 71.5 43H76.5C76.5 39.9624 74.0376 37.5 71 37.5V42.5ZM60 42.5H71V37.5H60V42.5ZM57.5 29V40H62.5V29H57.5ZM57 28.5C57.2761 28.5 57.5 28.7239 57.5 29H62.5C62.5 25.9624 60.0376 23.5 57 23.5V28.5ZM29 28.5H57V23.5H29V28.5Z" fill="white"/>
</svg>
