<svg width="160" height="29" viewBox="0 0 160 29" fill="none" xmlns="http://www.w3.org/2000/svg">
<path d="M14.7603 28.4175C19.2777 28.4175 23.0072 26.579 25.6335 23.6375L20.5383 19.3302C19.1726 20.906 16.9665 21.9566 14.8128 21.9566C10.8207 21.9566 7.45894 18.3847 7.45894 14.13C7.45894 9.98027 10.8207 6.46091 14.8128 6.46091C16.9139 6.46091 19.0676 7.45894 20.3808 8.98224L25.476 4.62244C22.9021 1.78594 19.2252 0 14.8654 0C6.77608 0 0 6.46091 0 14.1825C0 21.9041 6.77608 28.4175 14.7603 28.4175ZM37.1516 5.72553V0.630334H29.4825V27.7872H37.1516V14.8128C37.1516 9.71763 40.776 6.46091 46.449 6.46091V0C42.2993 0 38.9375 2.20617 37.1516 5.72553ZM62.5589 22.4819C58.8294 22.4819 56.2556 19.908 55.5727 16.2311H76.0585C76.0585 6.14575 70.9108 0 62.4013 0C54.4696 0 48.2714 5.93564 48.2714 14.13C48.2714 22.4819 54.7323 28.4175 62.8215 28.4175C66.8137 28.4175 71.4886 26.7366 73.9049 24.2153L69.5976 19.803C67.8642 21.3788 65.0277 22.4819 62.5589 22.4819ZM62.4538 5.93564C65.9207 5.93564 68.0743 8.29938 68.7047 11.6612H55.6252C56.4657 8.19433 59.0395 5.93564 62.4538 5.93564ZM85.5633 27.7872H92.4444L97.5396 10.7157L102.635 27.7872H109.516L118.708 0.630334H111.197L106.102 17.5443L100.691 0.630334H94.3354L88.9774 17.5443L83.8298 0.630334H76.3184L85.5633 27.7872ZM136.257 27.7872H160V21.2737H146.238L159.842 6.04069L159.895 0.630334H136.625V7.14377H149.915L136.257 22.3768V27.7872Z" fill="#2E2E2E"/>
<path d="M127.001 28.4175C129.575 28.4175 131.676 26.2113 131.676 23.5324C131.676 21.0636 129.575 18.8574 127.001 18.8574C124.27 18.8574 122.169 21.0636 122.169 23.5324C122.169 26.2113 124.27 28.4175 127.001 28.4175Z" fill="#FF5A5A"/>
</svg>
