<svg width="100" height="100" viewBox="0 0 100 100" fill="none" xmlns="http://www.w3.org/2000/svg">
<circle cx="50" cy="50" r="50" fill="#FF6363"/>
<path fill-rule="evenodd" clip-rule="evenodd" d="M24 76.2697C26.754 74.6355 29.4289 73.9698 31.6778 73.9353C36.9956 73.8596 41.8176 70.6739 41.8176 65.5613V62.4879C39.9786 60.2785 37.6377 56.8659 36.7621 54.1315C36.5743 53.5759 35.8393 52.9331 35.3315 52.5826C33.3179 50.9283 32.7696 47.832 34.0181 45.5581C34.1078 45.3693 34.3508 45.1936 34.6 45.0133C34.952 44.7587 35.3164 44.4952 35.2791 44.1732C35.2834 43.1217 35.281 42.0701 35.2786 41.0188C35.2747 39.3012 35.2708 37.5844 35.2962 35.8698C35.4067 33.2932 36.0494 30.6871 37.5085 28.5357C39.1658 26.0585 41.8398 24.3926 44.6824 23.6746C47.969 22.8385 51.436 22.8043 54.7522 23.4352C57.379 23.9384 59.9244 25.1067 61.7746 27.0643C64.0689 29.4892 65.0025 32.8954 65.0783 36.1741C65.0904 37.9818 65.0863 39.7946 65.0823 41.6074C65.0803 42.5137 65.0783 43.4201 65.0783 44.3259C65.0683 44.556 65.3902 44.7473 65.6976 44.9301C65.9202 45.0624 66.1351 45.1902 66.2112 45.3249C67.5359 47.4586 67.1915 50.45 65.417 52.2208C65.2893 52.3574 65.0394 52.4799 64.7759 52.6089C64.3639 52.8108 63.9191 53.0287 63.8583 53.3423C62.948 56.3861 60.5951 60.1503 58.5524 62.5866V65.5603C58.5524 70.6739 63.5025 73.8876 68.6865 73.9343L68.6859 73.9341C70.8913 73.9567 73.5744 74.6272 76.3529 76.2816C69.3302 82.3379 60.1844 86 50.1833 86C40.1757 86 31.0245 82.3332 24 76.2697Z" fill="white"/>
</svg>
